REM DIRINDEX 1\2,1\3,1\4
REM DIRNAME cjc038,folder01,folder02,folder03
TITLE ""
FILE "DISC2Track38.mp3" MP3
  TRACK 01 AUDIO
    TITLE "0:"
    INDEX 01 00:00:00
  TRACK 02 AUDIO
    TITLE "4:cjc038_2079"
    INDEX 01 00:00:07
  TRACK 03 AUDIO
    TITLE "0:"
    INDEX 01 00:03:31
  TRACK 04 AUDIO
    TITLE "4:cjc038_2080"
    INDEX 01 00:03:49
  TRACK 05 AUDIO
    TITLE "0:"
    INDEX 01 00:06:22
  TRACK 06 AUDIO
    TITLE "2:cjc038_2081"
    INDEX 01 00:07:60
  TRACK 07 AUDIO
    TITLE "2:cjc038_2082"
    INDEX 01 00:12:16
  TRACK 08 AUDIO
    TITLE "2:cjc038_2083"
    INDEX 01 00:19:18
  TRACK 09 AUDIO
    TITLE "2:cjc038_2084"
    INDEX 01 00:27:57
  TRACK 10 AUDIO
    TITLE "0:"
    INDEX 01 00:30:46
  TRACK 11 AUDIO
    TITLE "3:cjc038_2085"
    INDEX 01 00:30:57
  TRACK 12 AUDIO
    TITLE "3:cjc038_2086"
    INDEX 01 00:35:14
  TRACK 13 AUDIO
    TITLE "3:cjc038_2087"
    INDEX 01 00:42:12
  TRACK 14 AUDIO
    TITLE "3:cjc038_2088"
    INDEX 01 00:50:52
  TRACK 15 AUDIO
    TITLE "0:"
    INDEX 01 00:53:25
  TRACK 16 AUDIO
    TITLE "2:cjc038_2089"
    INDEX 01 00:55:10
  TRACK 17 AUDIO
    TITLE "2:cjc038_2090"
    INDEX 01 00:59:53
  TRACK 18 AUDIO
    TITLE "2:cjc038_2091"
    INDEX 01 01:03:27
  TRACK 19 AUDIO
    TITLE "2:cjc038_2092"
    INDEX 01 01:05:09
  TRACK 20 AUDIO
    TITLE "2:cjc038_2093"
    INDEX 01 01:06:12
  TRACK 21 AUDIO
    TITLE "2:cjc038_2094"
    INDEX 01 01:10:41
  TRACK 22 AUDIO
    TITLE "2:cjc038_2095"
    INDEX 01 01:13:34
  TRACK 23 AUDIO
    TITLE "2:cjc038_2096"
    INDEX 01 01:14:39
  TRACK 24 AUDIO
    TITLE "2:cjc038_2097"
    INDEX 01 01:17:63
  TRACK 25 AUDIO
    TITLE "2:cjc038_2098"
    INDEX 01 01:20:06
  TRACK 26 AUDIO
    TITLE "2:cjc038_2099"
    INDEX 01 01:21:67
  TRACK 27 AUDIO
    TITLE "2:cjc038_2100"
    INDEX 01 01:24:45
  TRACK 28 AUDIO
    TITLE "2:cjc038_2101"
    INDEX 01 01:26:60
  TRACK 29 AUDIO
    TITLE "2:cjc038_2102"
    INDEX 01 01:32:66
  TRACK 30 AUDIO
    TITLE "2:cjc038_2103"
    INDEX 01 01:36:52
  TRACK 31 AUDIO
    TITLE "2:cjc038_2104"
    INDEX 01 01:43:27
  TRACK 32 AUDIO
    TITLE "2:cjc038_2105"
    INDEX 01 01:45:24
  TRACK 33 AUDIO
    TITLE "2:cjc038_2106"
    INDEX 01 01:47:29
  TRACK 34 AUDIO
    TITLE "0:"
    INDEX 01 01:48:73
  TRACK 35 AUDIO
    TITLE "3:cjc038_2107"
    INDEX 01 01:49:06
  TRACK 36 AUDIO
    TITLE "3:cjc038_2108"
    INDEX 01 01:53:51
  TRACK 37 AUDIO
    TITLE "3:cjc038_2109"
    INDEX 01 01:57:27
  TRACK 38 AUDIO
    TITLE "3:cjc038_2110"
    INDEX 01 01:59:06
  TRACK 39 AUDIO
    TITLE "3:cjc038_2111"
    INDEX 01 02:00:12
  TRACK 40 AUDIO
    TITLE "3:cjc038_2112"
    INDEX 01 02:04:39
  TRACK 41 AUDIO
    TITLE "3:cjc038_2113"
    INDEX 01 02:07:37
  TRACK 42 AUDIO
    TITLE "3:cjc038_2114"
    INDEX 01 02:08:41
  TRACK 43 AUDIO
    TITLE "3:cjc038_2115"
    INDEX 01 02:11:63
  TRACK 44 AUDIO
    TITLE "3:cjc038_2116"
    INDEX 01 02:14:06
  TRACK 45 AUDIO
    TITLE "3:cjc038_2117"
    INDEX 01 02:16:01
  TRACK 46 AUDIO
    TITLE "3:cjc038_2118"
    INDEX 01 02:18:37
  TRACK 47 AUDIO
    TITLE "3:cjc038_2119"
    INDEX 01 02:20:61
  TRACK 48 AUDIO
    TITLE "3:cjc038_2120"
    INDEX 01 02:26:74
  TRACK 49 AUDIO
    TITLE "3:cjc038_2121"
    INDEX 01 02:30:48
  TRACK 50 AUDIO
    TITLE "3:cjc038_2122"
    INDEX 01 02:37:25
  TRACK 51 AUDIO
    TITLE "3:cjc038_2123"
    INDEX 01 02:39:20
  TRACK 52 AUDIO
    TITLE "3:cjc038_2124"
    INDEX 01 02:41:32
  TRACK 53 AUDIO
    TITLE "0:"
    INDEX 01 02:42:61
  TRACK 54 AUDIO
    TITLE "2:cjc038_2125"
    INDEX 01 02:44:44
  TRACK 55 AUDIO
    TITLE "2:cjc038_2126"
    INDEX 01 02:48:13
  TRACK 56 AUDIO
    TITLE "2:cjc038_2127"
    INDEX 01 02:52:30
  TRACK 57 AUDIO
    TITLE "2:cjc038_2128"
    INDEX 01 02:55:09
  TRACK 58 AUDIO
    TITLE "0:"
    INDEX 01 02:58:31
  TRACK 59 AUDIO
    TITLE "3:cjc038_2129"
    INDEX 01 02:58:41
  TRACK 60 AUDIO
    TITLE "3:cjc038_2130"
    INDEX 01 03:02:11
  TRACK 61 AUDIO
    TITLE "3:cjc038_2131"
    INDEX 01 03:06:26
  TRACK 62 AUDIO
    TITLE "3:cjc038_2132"
    INDEX 01 03:09:07
  TRACK 63 AUDIO
    TITLE "0:"
    INDEX 01 03:12:17
